<svg xmlns="http://www.w3.org/2000/svg" viewBox="0 0 1000 1000"><path fill="#283339" fill-rule="evenodd" d="M795.32 103.217h-582.5L0 314.943l483.176 581.841 38.545-43.25L1000 316.934 795.32 103.218Z"/><path fill="#274d82" d="M332.923 701.925v-53.109h-44.1v-32.213l-2.423 1.4L226 513.384l452.779-261.412-8.322-14.414 135.841-78.428 8.322 14.414 12.12-7 60.4 104.619-543.11 313.565h212.536v-16.632h168.176v18.039h-30.2v62.681h-47.328v53.109ZM109.3 392.599l-5.694-9.862-1.445.834-6-10.4-3.774 2.179-9.445-16.359-3.077 1.777-8.038-13.922-4.374 2.526-12.407-21.489L440.04 105.604l8.038 13.923 4.374-2.526 9.445 16.359 3.077-1.777 8.638 14.961 25.923-14.967L507.862 146l17.073-9.857 7.139 12.365 29.313-16.924 12.407 21.49-452.087 261.013Z"/><path fill="#3068b7" fill-rule="evenodd" d="M795.32 103.217h-582.5L0 314.943l483.176 581.841 38.545-43.25L1000 316.934 795.32 103.218Zm-21.28 49.849 158.095 165.08-447.621 502.215L67.459 318.146l165.932-165.08h540.65Z"/></svg>