<svg xmlns="http://www.w3.org/2000/svg" viewBox="0 0 1003.02 795.963"><g fill-rule="evenodd"><path fill="#283339" d="M797.722 0H213.463L0 212.365 484.635 795.96l38.662-43.38 479.723-538.22L797.72.002Z"/><path fill="#274d82" d="M289.697 482.967h406.941v64.28H289.697Z"/><path fill="#274d82" d="M333.928 536.236h315.239v64.28H333.928Zm224.32-69.953h168.684v18.093H558.248Zm-331.563-54.878L829.237 63.52l60.584 104.935L287.267 516.34Zm-146.462-160L466.378 28.453l12.445 21.555L92.666 272.96Z"/><path fill="#274d82" d="M67.661 236.776 453.818 13.827l12.445 21.555L80.106 258.331Z"/><path fill="#274d82" d="M55.211 225.345 441.368 2.396l12.445 21.555L67.656 246.9Zm37.459 38.877L501.043 28.448l9.8 16.976-408.372 235.774Z"/><path fill="#274d82" d="M102.472 277.852 526.521 33.027l9.8 16.976-424.048 244.825Z"/><path fill="#274d82" d="M109.63 290.255 563.085 28.454l12.445 21.555L122.075 311.81Zm562.855-155.509 136.251-78.664 40.279 69.764-136.254 78.664Z"/><path fill="#3068b7" d="M797.722 0H213.463L0 212.365 484.635 795.96l38.662-43.38 479.723-538.22L797.72.002Zm-21.344 50L934.95 215.578 485.977 719.31 67.663 215.578 234.096 49.999h542.282Z"/></g></svg>