<svg xmlns="http://www.w3.org/2000/svg" viewBox="0 0 495.999 511.399">
  <path fill="#3e63dd" d="M263.2 442.7 263 374l62.7-81.9 62.8-82 53.3-.1c51.2 0 53.3.1 52 1.8-.7 1-52.8 68.8-115.8 150.7L263.5 511.4ZM118 362.5C55 280.6 2.9 212.8 2.2 211.8c-1.3-1.7.8-1.8 52-1.8l53.3.1 62.8 82 62.7 82-.2 68.6-.3 68.7ZM444.7 180h-51.4l-33.2-37-33.2-37.1L356.1 61c16-24.8 29.5-45 29.9-45 .3 0 25.3 36.9 55.3 82l54.7 82Zm-393.4 0H0l54.7-82c30-45.1 55-82 55.3-82 .4 0 13.9 20.2 29.9 45l29.2 45-33.2 37-33.3 37ZM248 90h-53.5l-6.6-10.3c-3.7-5.6-16.8-25.8-29.2-45L136.1 0h223.8l-22.6 34.7c-12.4 19.2-25.5 39.4-29.2 45L301.5 90Z"/>
  <path fill="#a8b1ff" d="M164.5 155.9c-17.6 19.7-32 36.2-32 36.7 0 1.1 114.7 151.3 115.5 151.3s115.5-150.3 115.5-151.3c0-.5-14.4-17-32-36.7l-32-35.8h-103Z"/>
</svg>
